<svg id="Capa_2" data-name="Capa 2" xmlns="http://www.w3.org/2000/svg" viewBox="0 0 500 500"><defs><style>.cls-1{fill:#009fe3;}.cls-2{fill:#fff;}</style></defs><path class="cls-1" d="M249.55,416.82c-10.92,0-17.48-4.79-19.58-6.62-54.13-32.1-111.22-36.91-140.49-36.91a207.72,207.72,0,0,0-25.59,1.36,42,42,0,0,1-7.67.77c-11,0-15.91-5.62-17.83-9a17.23,17.23,0,0,1-2.19-8.57V136.46a16.43,16.43,0,0,1,4.73-11.14,18.43,18.43,0,0,1,11.86-5.39L78,118V97.09A13.52,13.52,0,0,1,90.65,83.61c4.74-.29,9.52-.43,14.21-.43,80.31,0,130.93,42.07,145.14,55.61,14.21-13.54,64.84-55.61,145.14-55.61,4.69,0,9.47.14,14.21.43A13.52,13.52,0,0,1,422,97.09V118l25.18,1.94a18.38,18.38,0,0,1,11.85,5.39,16.44,16.44,0,0,1,4.74,11.14V357.88a17.23,17.23,0,0,1-2.19,8.57c-1.92,3.35-6.8,9-17.83,9h0a42,42,0,0,1-7.67-.77,209.52,209.52,0,0,0-25.59-1.36c-29.27,0-86.36,4.81-140.49,36.91-2.1,1.83-8.66,6.62-19.58,6.62Z"/><path class="cls-2" d="M395.14,89.18c4.51,0,9.14.13,13.85.42a7.49,7.49,0,0,1,7,7.49v22.29a4.51,4.51,0,0,0,4.16,4.49l26.56,2a12.44,12.44,0,0,1,8,3.59,10.44,10.44,0,0,1,3.05,7.14V357.88a11.14,11.14,0,0,1-1.39,5.58c-1.62,2.82-5.11,6-12.64,6a36.08,36.08,0,0,1-6.7-.69,208.45,208.45,0,0,0-26.55-1.43c-32.36,0-89.49,5.5-144.08,38.06,0,0-5.41,5.46-16,5.46h-.92c-10.57,0-16-5.46-16-5.46C179,372.79,121.84,367.3,89.48,367.3a208.64,208.64,0,0,0-26.55,1.43,36.08,36.08,0,0,1-6.7.69c-7.53,0-11-3.14-12.64-6a11.14,11.14,0,0,1-1.39-5.58V136.64a10.44,10.44,0,0,1,3-7.14,12.44,12.44,0,0,1,8-3.59l26.56-2A4.51,4.51,0,0,0,84,119.38V97.09a7.49,7.49,0,0,1,7-7.49c4.72-.29,9.33-.42,13.85-.42,83.49,0,133.59,46.35,143.37,56.28a2.46,2.46,0,0,0,3.54,0c9.78-9.93,59.87-56.28,143.37-56.28m0-12A221.56,221.56,0,0,0,290.19,103,207.19,207.19,0,0,0,250,130.64,207.19,207.19,0,0,0,209.81,103,221.56,221.56,0,0,0,104.86,77.18c-4.81,0-9.71.15-14.57.44A19.52,19.52,0,0,0,72,97.09v15.35L52.34,114a24.4,24.4,0,0,0-15.7,7.19,22.37,22.37,0,0,0-6.43,15.14v221.6a23.25,23.25,0,0,0,3,11.56c2.57,4.47,9,12,23,12a48.52,48.52,0,0,0,8.6-.84,205.61,205.61,0,0,1,24.65-1.29c28.59,0,84.28,4.68,137.07,35.86a36.41,36.41,0,0,0,23,7.67h.92a36.41,36.41,0,0,0,23-7.67c52.79-31.18,108.48-35.86,137.07-35.86a204.73,204.73,0,0,1,24.66,1.29,48.32,48.32,0,0,0,8.59.84c14.06,0,20.47-7.51,23-12a23.25,23.25,0,0,0,3-11.56V136.28a22.37,22.37,0,0,0-6.43-15.14,24.4,24.4,0,0,0-15.7-7.19L428,112.44V97.09a19.52,19.52,0,0,0-18.31-19.47c-4.86-.29-9.76-.44-14.57-.44Z"/><path class="cls-2" d="M234.36,165V350a4.49,4.49,0,0,1-7.45,3.4c-13.76-12.1-48.32-35.36-117.8-44.62a4.52,4.52,0,0,1-3.93-4.46V113.55a4.48,4.48,0,0,1,4.57-4.5c16.38.28,73.91,4.84,123.25,52.68A4.55,4.55,0,0,1,234.36,165Z"/><path class="cls-2" d="M265.64,165V350a4.49,4.49,0,0,0,7.45,3.4c13.76-12.1,48.32-35.36,117.8-44.62a4.52,4.52,0,0,0,3.93-4.46V113.55a4.48,4.48,0,0,0-4.57-4.5c-16.38.28-73.91,4.84-123.25,52.68A4.55,4.55,0,0,0,265.64,165Z"/></svg>